<svg width="54" height="30" viewBox="0 0 54 30" fill="none" xmlns="http://www.w3.org/2000/svg">
<path d="M53.3334 0H0.833374V30H53.3334V0Z" fill="#307359"/>
<path d="M14.6154 0H6.33997V30H14.6154V0Z" fill="#BF0236"/>
<path fill-rule="evenodd" clip-rule="evenodd" d="M6.33997 8.381V8.15117L6.69977 7.56894L6.60591 7.44637L6.82492 7.13993L6.76234 7.01736L6.60591 7.24719L6.55898 7.13993L7.02829 6.32788L7.12215 6.43513L7.02829 6.55771L7.18472 6.78753L7.54452 6.20531L7.18472 5.65372L7.02829 5.85291L7.12215 5.97548L7.02829 6.08273L6.55898 5.27068L6.60591 5.16343L6.76234 5.39325L6.82492 5.27068L6.60591 4.96424L6.69977 4.84167L6.33997 4.25944V4.02962L6.82492 4.84167L6.76234 4.96424L6.96571 5.27068L6.82492 5.51583L6.96571 5.74565L7.18472 5.39325L7.65403 6.20531L7.18472 7.01736L6.96571 6.66496L6.82492 6.89479L6.96571 7.13993L6.76234 7.44637L6.82492 7.56894L6.33997 8.381Z" fill="#E0852A"/>
<path fill-rule="evenodd" clip-rule="evenodd" d="M6.33997 5.51584L6.43383 5.74567V6.08274H6.65284L6.76234 6.20532L6.65284 6.32789H6.43383V6.66497L6.33997 6.8948V5.51584Z" fill="#E0852A"/>
<path fill-rule="evenodd" clip-rule="evenodd" d="M6.33997 13.8815V13.6517L6.69977 13.0848L6.60591 12.9622L6.82492 12.6098L6.76234 12.4872L6.60591 12.7171L6.55898 12.6098L7.02829 11.8284L7.12215 11.951L7.02829 12.0582L7.18472 12.2881L7.54452 11.7058L7.18472 11.1696L7.02829 11.3687L7.12215 11.4913L7.02829 11.5986L6.55898 10.7865L6.60591 10.6639L6.76234 10.8938L6.82492 10.7865L6.60591 10.4341L6.69977 10.3115L6.33997 9.77528V9.54546L6.82492 10.3115L6.76234 10.4341L6.96571 10.7865L6.82492 11.0163L6.96571 11.2462L7.18472 10.8938L7.65403 11.7058L7.18472 12.4872L6.96571 12.1808L6.82492 12.4106L6.96571 12.6098L6.76234 12.9622L6.82492 13.0848L6.33997 13.8815Z" fill="#E0852A"/>
<path fill-rule="evenodd" clip-rule="evenodd" d="M6.33997 11.0163L6.43383 11.2462V11.5986H6.65284L6.76234 11.7058L6.65284 11.8284H6.43383V12.1808L6.33997 12.4106V11.0163Z" fill="#E0852A"/>
<path fill-rule="evenodd" clip-rule="evenodd" d="M6.33997 19.3973V19.1675L6.69977 18.5853L6.60591 18.4627L6.82492 18.1103L6.76234 18.0031L6.60591 18.2329L6.55898 18.1103L7.02829 17.3289L7.12215 17.4208L7.02829 17.5434L7.18472 17.7732L7.54452 17.2217L7.18472 16.6394L7.02829 16.8693L7.12215 16.9918L7.02829 17.0991L6.55898 16.287L6.60591 16.1798L6.76234 16.4096L6.82492 16.287L6.60591 15.9499L6.69977 15.8274L6.33997 15.2451V15.0153L6.82492 15.8274L6.76234 15.9499L6.96571 16.287L6.82492 16.5169L6.96571 16.7467L7.18472 16.4096L7.65403 17.2217L7.18472 18.0031L6.96571 17.6507L6.82492 17.8805L6.96571 18.1103L6.76234 18.4627L6.82492 18.5853L6.33997 19.3973Z" fill="#E0852A"/>
<path fill-rule="evenodd" clip-rule="evenodd" d="M6.33997 16.5168L6.43383 16.7467V17.0991H6.65284L6.76234 17.2216L6.65284 17.3289H6.43383V17.6507L6.33997 17.8805V16.5168Z" fill="#E0852A"/>
<path fill-rule="evenodd" clip-rule="evenodd" d="M6.33997 24.5455V24.3156L6.69977 23.7487L6.60591 23.6262L6.82492 23.2738L6.76234 23.1512L6.60591 23.3963L6.55898 23.2738L7.02829 22.4617L7.12215 22.5843L7.02829 22.6915L7.18472 22.9214L7.54452 22.3544L7.18472 21.8029L7.02829 22.0327L7.12215 22.1399L7.02829 22.2625L6.55898 21.4505L6.60591 21.3279L6.76234 21.573L6.82492 21.4505L6.60591 21.0981L6.69977 20.9908L6.33997 20.4086V20.1788L6.82492 20.9908L6.76234 21.0981L6.96571 21.4505L6.82492 21.6803L6.96571 21.9101L7.18472 21.573L7.65403 22.3698L7.18472 23.1512L6.96571 22.8141L6.82492 23.0439L6.96571 23.2738L6.76234 23.6262L6.82492 23.7487L6.33997 24.5455Z" fill="#E0852A"/>
<path fill-rule="evenodd" clip-rule="evenodd" d="M6.33997 21.6803L6.43383 21.9101V22.2625H6.65284L6.76234 22.3544L6.65284 22.4617H6.43383V22.8141L6.33997 23.0439V21.6803Z" fill="#E0852A"/>
<path fill-rule="evenodd" clip-rule="evenodd" d="M14.6154 8.381V8.15117L14.2556 7.56894L14.3495 7.44637L14.1461 7.13993L14.2087 7.01736L14.3495 7.24719L14.4121 7.13993L13.9428 6.32788L13.8489 6.43513L13.9428 6.55771L13.7863 6.78753L13.4578 6.20531L13.7863 5.65372L13.9428 5.85291L13.8489 5.97548L13.9428 6.08273L14.4121 5.27068L14.3495 5.16343L14.2087 5.39325L14.1461 5.27068L14.3495 4.96424L14.2556 4.84167L14.6154 4.25944V4.02962L14.1461 4.84167L14.2087 4.96424L13.9897 5.27068L14.1461 5.51583L13.9897 5.74565L13.7863 5.39325L13.317 6.20531L13.7863 7.01736L13.9897 6.66496L14.1461 6.89479L13.9897 7.13993L14.2087 7.44637L14.1461 7.56894L14.6154 8.381Z" fill="#E0852A"/>
<path fill-rule="evenodd" clip-rule="evenodd" d="M14.6154 5.51584L14.5528 5.74567V6.08274H14.3494L14.2086 6.20532L14.3494 6.32789H14.5528V6.66497L14.6154 6.8948V5.51584Z" fill="#E0852A"/>
<path fill-rule="evenodd" clip-rule="evenodd" d="M14.6154 13.8815V13.6517L14.2556 13.0848L14.3495 12.9622L14.1461 12.6098L14.2087 12.4872L14.3495 12.7171L14.4121 12.6098L13.9428 11.8284L13.8489 11.951L13.9428 12.0582L13.7863 12.2881L13.4578 11.7058L13.7863 11.1696L13.9428 11.3687L13.8489 11.4913L13.9428 11.5986L14.4121 10.7865L14.3495 10.6639L14.2087 10.8938L14.1461 10.7865L14.3495 10.4341L14.2556 10.3115L14.6154 9.77528V9.54546L14.1461 10.3115L14.2087 10.4341L13.9897 10.7865L14.1461 11.0163L13.9897 11.2462L13.7863 10.8938L13.317 11.7058L13.7863 12.4872L13.9897 12.1808L14.1461 12.4106L13.9897 12.6098L14.2087 12.9622L14.1461 13.0848L14.6154 13.8815Z" fill="#E0852A"/>
<path fill-rule="evenodd" clip-rule="evenodd" d="M14.6154 11.0163L14.5528 11.2462V11.5986H14.3494L14.2086 11.7058L14.3494 11.8284H14.5528V12.1808L14.6154 12.4106V11.0163Z" fill="#E0852A"/>
<path fill-rule="evenodd" clip-rule="evenodd" d="M14.6154 19.3973V19.1675L14.2556 18.5853L14.3495 18.4627L14.1461 18.1103L14.2087 18.0031L14.3495 18.2329L14.4121 18.1103L13.9428 17.3289L13.8489 17.4208L13.9428 17.5434L13.7863 17.7732L13.4578 17.2217L13.7863 16.6394L13.9428 16.8693L13.8489 16.9918L13.9428 17.0991L14.4121 16.287L14.3495 16.1798L14.2087 16.4096L14.1461 16.287L14.3495 15.9499L14.2556 15.8274L14.6154 15.2451V15.0153L14.1461 15.8274L14.2087 15.9499L13.9897 16.287L14.1461 16.5169L13.9897 16.7467L13.7863 16.4096L13.317 17.2217L13.7863 18.0031L13.9897 17.6507L14.1461 17.8805L13.9897 18.1103L14.2087 18.4627L14.1461 18.5853L14.6154 19.3973Z" fill="#E0852A"/>
<path fill-rule="evenodd" clip-rule="evenodd" d="M14.6154 16.5168L14.5528 16.7467V17.0991H14.3494L14.2086 17.2216L14.3494 17.3289H14.5528V17.6507L14.6154 17.8805V16.5168Z" fill="#E0852A"/>
<path fill-rule="evenodd" clip-rule="evenodd" d="M14.6154 24.5455V24.3156L14.2556 23.7487L14.3495 23.6262L14.1461 23.2738L14.2087 23.1512L14.3495 23.3963L14.4121 23.2738L13.9428 22.4617L13.8489 22.5843L13.9428 22.6915L13.7863 22.9214L13.4578 22.3544L13.7863 21.8029L13.9428 22.0327L13.8489 22.1399L13.9428 22.2625L14.4121 21.4505L14.3495 21.3279L14.2087 21.573L14.1461 21.4505L14.3495 21.0981L14.2556 20.9908L14.6154 20.4086V20.1788L14.1461 20.9908L14.2087 21.0981L13.9897 21.4505L14.1461 21.6803L13.9897 21.9101L13.7863 21.573L13.317 22.3698L13.7863 23.1512L13.9897 22.8141L14.1461 23.0439L13.9897 23.2738L14.2087 23.6262L14.1461 23.7487L14.6154 24.5455Z" fill="#E0852A"/>
<path fill-rule="evenodd" clip-rule="evenodd" d="M14.6154 21.6803L14.5528 21.9101V22.2625H14.3494L14.2086 22.3544L14.3494 22.4617H14.5528V22.8141L14.6154 23.0439V21.6803Z" fill="#E0852A"/>
<path fill-rule="evenodd" clip-rule="evenodd" d="M6.33997 2.20633V1.97651L6.69977 1.39428L6.60591 1.28703L6.82492 0.919306L6.76234 0.812053L6.60591 1.04188L6.55898 0.919306L7.02829 0.122574L7.12215 0.229826L7.02829 0.3524L7.18472 0.582227L7.54452 0H7.65403L7.18472 0.812053L6.96571 0.459653L6.82492 0.704801L6.96571 0.919306L6.76234 1.28703L6.82492 1.39428L6.33997 2.20633Z" fill="#E0852A"/>
<path fill-rule="evenodd" clip-rule="evenodd" d="M6.33997 0H6.76234L6.65284 0.122574H6.43383V0.459653L6.33997 0.704801V0Z" fill="#E0852A"/>
<path fill-rule="evenodd" clip-rule="evenodd" d="M14.6154 2.20633V1.97651L14.2556 1.39428L14.3495 1.28703L14.1461 0.919306L14.2087 0.812053L14.3495 1.04188L14.4121 0.919306L13.9428 0.122574L13.8489 0.229826L13.9428 0.3524L13.7863 0.582227L13.4578 0H13.317L13.7863 0.812053L13.9897 0.459653L14.1461 0.704801L13.9897 0.919306L14.2087 1.28703L14.1461 1.39428L14.6154 2.20633Z" fill="#E0852A"/>
<path fill-rule="evenodd" clip-rule="evenodd" d="M14.6154 0H14.2086L14.3494 0.122574H14.5528V0.459653L14.6154 0.704801V0Z" fill="#E0852A"/>
<path fill-rule="evenodd" clip-rule="evenodd" d="M9.78149 29.7395C10.0422 29.3984 10.4304 29.1725 10.8609 29.1113C11.5962 29.0041 11.7057 29.4331 12.1593 29.4331C12.5399 29.3853 12.9098 29.2766 13.2544 29.1113C12.9133 29.4109 12.4882 29.6031 12.0342 29.6629C11.5336 29.6629 11.3459 29.3718 10.8296 29.4331C10.4709 29.4787 10.119 29.5661 9.78149 29.6936V29.7395Z" fill="#E0852A"/>
<path fill-rule="evenodd" clip-rule="evenodd" d="M11.2364 29.7395C11.1176 29.5743 10.9665 29.4338 10.792 29.3259C10.6175 29.2181 10.423 29.1452 10.2195 29.1113C9.46865 29.0041 9.32786 29.4331 8.90548 29.4331C8.5238 29.3906 8.15295 29.2817 7.81042 29.1113C8.13789 29.4127 8.55379 29.6057 8.99934 29.6629C9.53122 29.6629 9.71895 29.3718 10.2508 29.4331C10.5946 29.4774 10.9311 29.565 11.252 29.6936L11.2364 29.7395Z" fill="#E0852A"/>
<path fill-rule="evenodd" clip-rule="evenodd" d="M8.81165 29.0194C8.65521 28.8968 8.65521 28.3759 8.65521 28.3146C8.65521 28.2533 9.14016 28.8049 9.10888 29.2799C8.87422 29.3565 8.09204 29.2799 8.09204 29.096C8.09204 28.9122 8.59264 28.9581 8.81165 29.096V29.0194Z" fill="#E0852A"/>
<path fill-rule="evenodd" clip-rule="evenodd" d="M8.34236 28.5751C8.34236 28.4372 8.21721 27.8856 8.34236 27.855C8.46751 27.8243 8.71781 28.4372 8.6083 28.8968C8.37365 28.8968 7.62276 28.6057 7.68533 28.4678C7.7479 28.3299 8.18593 28.4678 8.37365 28.5751H8.34236Z" fill="#E0852A"/>
<path fill-rule="evenodd" clip-rule="evenodd" d="M7.95125 28.0541C7.95125 27.9469 7.95125 27.3953 7.95125 27.3647C7.95125 27.334 8.27977 28.0082 8.09204 28.4065C7.85739 28.4065 7.15343 28.0082 7.20036 27.8856C7.24729 27.763 7.70095 27.8856 7.88868 28.0541H7.95125Z" fill="#E0852A"/>
<path fill-rule="evenodd" clip-rule="evenodd" d="M7.65396 27.5792C7.65396 27.4413 7.65396 26.8897 7.79475 26.8897C7.93555 26.8897 8.04505 27.5792 7.79475 27.9622C7.5601 27.9622 6.93435 27.4106 6.99693 27.3034C7.0595 27.1961 7.49752 27.4413 7.65396 27.5792Z" fill="#E0852A"/>
<path fill-rule="evenodd" clip-rule="evenodd" d="M7.45064 26.9816C7.45064 26.8437 7.56015 26.3228 7.6853 26.3228C7.75308 26.4984 7.77708 26.6873 7.75532 26.8739C7.73355 27.0604 7.66664 27.2392 7.56015 27.3953C7.29421 27.3034 6.76232 26.6752 6.8249 26.5833C6.88747 26.4913 7.29421 26.8131 7.45064 26.9816Z" fill="#E0852A"/>
<path fill-rule="evenodd" clip-rule="evenodd" d="M7.49756 26.3534C7.49756 26.8897 7.35676 26.8897 7.15339 26.4913C7.09082 26.3534 7.09082 25.6793 7.09082 25.6793C7.09082 25.6793 7.46627 26.1236 7.46627 26.3534H7.49756Z" fill="#E0852A"/>
<path fill-rule="evenodd" clip-rule="evenodd" d="M12.222 29.1113C12.222 28.9888 12.4253 28.4678 12.3315 28.4065C12.2376 28.3453 11.8622 28.8968 11.8934 29.3565C12.1281 29.4484 12.8946 29.3565 12.8946 29.188C12.8946 29.0194 12.394 29.0501 12.222 29.1113Z" fill="#E0852A"/>
<path fill-rule="evenodd" clip-rule="evenodd" d="M12.6599 28.6364C12.6599 28.4832 12.7694 27.9469 12.6599 27.9162C12.5504 27.8856 12.2688 28.4832 12.394 28.9581C12.6286 28.9581 13.3639 28.667 13.3482 28.5291C13.3326 28.3912 12.832 28.5291 12.6286 28.6364H12.6599Z" fill="#E0852A"/>
<path fill-rule="evenodd" clip-rule="evenodd" d="M13.0354 28.1154C13.0354 28.0082 13.0354 27.4413 13.0354 27.4259C13.0354 27.4106 12.7069 28.0541 12.879 28.4678C13.1293 28.4678 13.8332 28.0541 13.7707 27.9469C13.7081 27.8396 13.2701 27.9469 13.0823 28.1154H13.0354Z" fill="#E0852A"/>
<path fill-rule="evenodd" clip-rule="evenodd" d="M13.3483 27.5792C13.3483 27.426 13.3483 26.8744 13.1919 26.8744C13.1015 27.042 13.0542 27.2287 13.0542 27.4183C13.0542 27.6079 13.1015 27.7946 13.1919 27.9622C13.4265 27.9622 14.0523 27.4106 13.9897 27.2881C13.9271 27.1655 13.5204 27.426 13.3483 27.5792Z" fill="#E0852A"/>
<path fill-rule="evenodd" clip-rule="evenodd" d="M13.5517 27.0429C13.5517 26.8897 13.4265 26.3841 13.317 26.3841C13.2075 26.3841 13.1606 27.0735 13.4578 27.4413C13.7081 27.4413 14.2243 26.7365 14.1774 26.6445C14.1305 26.5526 13.7081 26.8744 13.5517 27.0429Z" fill="#E0852A"/>
<path fill-rule="evenodd" clip-rule="evenodd" d="M13.5204 26.3994C13.5204 26.951 13.6456 26.951 13.8489 26.5526C13.9584 26.3994 13.9584 25.7406 13.8489 25.7406C13.7394 25.7406 13.4891 26.1849 13.4891 26.3994H13.5204Z" fill="#E0852A"/>
<path fill-rule="evenodd" clip-rule="evenodd" d="M13.3483 20.6384H12.926V20.9908H12.5505V21.3279H10.9392L10.6733 21.6803L10.8297 21.8641H11.4711L11.6275 21.6803H10.9392L11.0956 21.5117H12.003L11.6275 22.0327H10.6733L10.4073 21.8641L10.1414 22.0327H9.23406L8.84297 21.5117H9.76594L9.87545 21.6803H9.23406L9.37485 21.8641H10.0162L10.1414 21.6803L9.87545 21.3279H8.42059V20.9908H8.0295V20.6384H7.65405V19.0449H8.0295V18.6925H8.42059V18.3555H9.87545L10.1414 18.0031L10.0162 17.8192H9.37485L9.23406 18.0031H9.87545L9.76594 18.1716H8.84297L9.23406 17.6507H10.1414L10.4073 17.8192L10.6733 17.6507H11.6275L12.003 18.1716H11.0956L10.9392 18.0031H11.6275L11.4711 17.8192H10.8297L10.6733 18.0031L10.9392 18.3555H12.5505V18.6925H12.926V19.0449H13.3483V20.6384Z" fill="#C03F2A"/>
<path fill-rule="evenodd" clip-rule="evenodd" d="M7.76355 19.2441V20.4699H8.15464V20.8223H8.57702V21.1594H9.87544L10.4073 21.6803L10.9392 21.1594H12.3941V20.8223H12.8164V20.4699H13.1919V19.2135H12.8164V18.8764L12.3941 18.9071V18.524H10.9392L10.4073 18.0031L9.87544 18.524H8.57702V18.9071H8.15464V19.2441H7.76355Z" fill="#307359"/>
<path d="M7.85738 20.4699H7.6853V19.2441H7.85738V20.4699ZM7.76352 20.5465V20.4699V20.5465ZM7.76352 20.3779H8.15461V20.5465H7.76352V20.3779ZM8.15461 20.3779H8.24847V20.4699H8.15461V20.3779ZM8.24847 20.8223H8.06075V20.4699H8.24847V20.8223ZM8.15461 20.8989H8.06075V20.8223H8.15461V20.8989ZM8.15461 20.7303H8.65521V20.8989H8.15461V20.7303ZM8.57699 20.7303H8.65521V20.8223L8.57699 20.7303ZM8.57699 21.1593H8.48313V20.8223H8.65521L8.57699 21.1593ZM8.57699 21.2513H8.48313V21.1593H8.65521L8.57699 21.2513ZM8.57699 21.0674H9.87541V21.2513H8.65521L8.57699 21.0674ZM9.87541 21.0674H9.96927L9.87541 21.1593V21.0674ZM9.96927 21.0674L10.4699 21.5884L10.3447 21.7416L9.81283 21.2206L9.96927 21.0674ZM10.3447 21.5884L10.8766 21.0674L11.0018 21.2206L10.4699 21.7416L10.3447 21.5884ZM10.8766 21.0674V21.1593V21.0674ZM10.8766 21.0674H12.3315V21.2513H10.9392L10.8766 21.0674ZM12.441 21.2513H12.394V21.1593H12.4879L12.441 21.2513ZM12.2532 20.8223H12.441V21.1593H12.3002L12.2532 20.8223ZM12.2532 20.7303H12.3471V20.8223H12.3002L12.2532 20.7303ZM12.3471 20.7303H12.7695V20.8989H12.394L12.3471 20.7303ZM12.8477 20.8989V20.8223V20.8989ZM12.6756 20.4699H12.8477V20.8223H12.7225L12.6756 20.4699ZM12.6756 20.3779H12.7695V20.4699H12.7225L12.6756 20.3779ZM12.7695 20.3779H13.1919V20.5465H12.8164L12.7695 20.3779ZM13.2388 20.5465H13.1919V20.4699H13.3483L13.2388 20.5465ZM13.0667 19.2135H13.3483V20.4699H13.1136L13.0667 19.2135ZM13.1449 19.1216H13.3483V19.2135H13.1919L13.1449 19.1216ZM13.1449 19.3054H12.8164V19.1216H13.1919L13.1449 19.3054ZM12.7695 19.3054H12.7225V19.2135H12.8164L12.7695 19.3054ZM12.6756 18.8764H12.8477V19.2135H12.7225L12.6756 18.8764ZM12.7695 18.7845V18.8764V18.7845ZM12.7695 18.9683H12.394V18.7998H12.8164L12.7695 18.9683ZM12.3471 18.9683H12.3002V18.8917H12.394L12.3471 18.9683ZM12.2532 18.5087H12.441V18.8917H12.3002L12.2532 18.5087ZM12.394 18.3861H12.4879V18.478H12.394V18.3861ZM12.394 18.57H10.9392V18.3861H12.394V18.57ZM10.9392 18.57V18.478V18.57ZM10.9392 18.57L10.4073 18.0337L10.5324 17.8958L11.0643 18.4168L10.9392 18.57ZM10.5324 18.0337L10.0318 18.57L9.87541 18.4168L10.4073 17.8958L10.5324 18.0337ZM10.0318 18.57H9.87541V18.478L10.0318 18.57ZM9.93798 18.57H8.65521V18.3861H9.95363L9.93798 18.57ZM8.48313 18.3861H8.65521V18.478H8.48313V18.3861ZM8.65521 18.8611H8.48313V18.478H8.65521V18.8611ZM8.65521 18.9377V18.8611V18.9377ZM8.65521 18.9377H8.15461V18.7692H8.65521V18.9377ZM8.13897 18.7692H8.23283V18.8611H8.06075L8.13897 18.7692ZM8.32669 19.1982H8.06075V18.8611H8.24847L8.32669 19.1982ZM8.32669 19.2901H8.15461V19.1982H8.24847L8.32669 19.2901ZM8.23283 19.2901H7.76352V19.1216H8.15461L8.23283 19.2901ZM7.76352 19.1216V19.1982V19.1216Z" fill="#E0852A"/>
<path fill-rule="evenodd" clip-rule="evenodd" d="M9.64072 18.6926L8.8429 19.5659V18.6926H9.64072Z" fill="#C03F2A"/>
<path fill-rule="evenodd" clip-rule="evenodd" d="M11.2051 18.6926L12.0029 19.5659V18.6926H11.2051Z" fill="#C03F2A"/>
<path fill-rule="evenodd" clip-rule="evenodd" d="M9.64072 20.9908L8.8429 20.1175V20.9908H9.64072Z" fill="#C03F2A"/>
<path fill-rule="evenodd" clip-rule="evenodd" d="M11.2051 20.9908L12.0029 20.1175V20.9908H11.2051Z" fill="#C03F2A"/>
<path fill-rule="evenodd" clip-rule="evenodd" d="M11.471 19.2135L11.2051 19.5659H11.737L11.471 19.2135Z" fill="#C03F2A"/>
<path fill-rule="evenodd" clip-rule="evenodd" d="M9.37483 19.2135L9.10889 19.5659H9.64077L9.37483 19.2135Z" fill="#C03F2A"/>
<path fill-rule="evenodd" clip-rule="evenodd" d="M9.37483 20.4699L9.10889 20.1175H9.64077L9.37483 20.4699Z" fill="#C03F2A"/>
<path fill-rule="evenodd" clip-rule="evenodd" d="M11.471 20.4699L11.2051 20.1175H11.737L11.471 20.4699Z" fill="#C03F2A"/>
<path fill-rule="evenodd" clip-rule="evenodd" d="M10.4073 21.3279L10.1414 20.9908H10.6732L10.4073 21.3279Z" fill="#E0852A"/>
<path fill-rule="evenodd" clip-rule="evenodd" d="M10.4073 19.5659L10.1414 19.2135H10.6732L10.4073 19.5659Z" fill="#E0852A"/>
<path fill-rule="evenodd" clip-rule="evenodd" d="M10.4073 18.3555L10.1414 18.6925H10.6732L10.4073 18.3555Z" fill="#E0852A"/>
<path fill-rule="evenodd" clip-rule="evenodd" d="M10.4073 20.1175L10.1414 20.4699H10.6732L10.4073 20.1175Z" fill="#E0852A"/>
<path d="M11.737 19.5659H11.2051V19.7497H11.737V19.5659Z" fill="#E0852A"/>
<path d="M9.49995 19.7498H9.23401V19.9489H9.49995V19.7498Z" fill="#CF3B1D"/>
<path d="M11.6119 19.7498H11.3459V19.9489H11.6119V19.7498Z" fill="#CF3B1D"/>
<path d="M10.6732 18.6926H10.1414V18.8611H10.6732V18.6926Z" fill="#AD3B2B"/>
<path d="M10.6732 19.045H10.1414V19.2135H10.6732V19.045Z" fill="#AD3B2B"/>
<path d="M10.8297 18.8764H10.0162V19.0603H10.8297V18.8764Z" fill="#AD3B2B"/>
<path d="M10.6732 20.4699H10.1414V20.6537H10.6732V20.4699Z" fill="#AD3B2B"/>
<path d="M10.6732 20.8223H10.1414V20.9908H10.6732V20.8223Z" fill="#AD3B2B"/>
<path d="M10.8297 20.6384H10.0162V20.807H10.8297V20.6384Z" fill="#AD3B2B"/>
<path d="M11.737 19.9489H11.2051V20.1328H11.737V19.9489Z" fill="#E0852A"/>
<path d="M9.64077 19.5659H9.10889V19.7497H9.64077V19.5659Z" fill="#E0852A"/>
<path d="M9.64077 19.9489H9.10889V20.1328H9.64077V19.9489Z" fill="#E0852A"/>
<path d="M9.21833 19.7498H8.95239V19.9489H9.21833V19.7498Z" fill="#E0852A"/>
<path d="M9.75019 19.7498H9.48425V19.9489H9.75019V19.7498Z" fill="#E0852A"/>
<path d="M11.3615 19.7498H11.0956V19.9489H11.3615V19.7498Z" fill="#E0852A"/>
<path d="M11.8621 19.7498H11.6274V19.9489H11.8621V19.7498Z" fill="#E0852A"/>
<path fill-rule="evenodd" clip-rule="evenodd" d="M10.9392 16.0266L11.1739 15.9193L11.3772 16.0266H10.9392Z" fill="white"/>
<path fill-rule="evenodd" clip-rule="evenodd" d="M10.2665 16.0266L10.5011 15.9193L10.7045 16.0266H10.2665Z" fill="white"/>
<path fill-rule="evenodd" clip-rule="evenodd" d="M9.57812 16.0266L9.81278 15.9193L10.0161 16.0266H9.57812Z" fill="white"/>
<path fill-rule="evenodd" clip-rule="evenodd" d="M10.9392 12.9929L11.1739 13.1001L11.3772 12.9929H10.9392Z" fill="white"/>
<path fill-rule="evenodd" clip-rule="evenodd" d="M10.2665 12.9929L10.5011 13.1001L10.7045 12.9929H10.2665Z" fill="white"/>
<path fill-rule="evenodd" clip-rule="evenodd" d="M9.57812 12.9929L9.81278 13.1001L10.0161 12.9929H9.57812Z" fill="white"/>
<path fill-rule="evenodd" clip-rule="evenodd" d="M10.7671 15.9653L10.5012 16.1951L10.2353 15.9653L9.96931 16.1951L9.70337 15.9653V16.0878L9.87545 16.1951L9.78159 16.287V16.4096H9.87545L9.96931 16.287L10.0475 16.4096H10.1414V16.287L10.0475 16.1951L10.2353 16.0878L10.4073 16.1951L10.3135 16.287V16.4096H10.4073L10.5012 16.287L10.5951 16.4096H10.6733V16.287L10.5951 16.1951L10.7671 16.0878L10.9392 16.1951L10.861 16.287V16.4096H10.9392L11.0018 16.287L11.0957 16.4096H11.1739V16.287L11.0957 16.1951L11.2677 16.0878V15.9653L11.0018 16.1951L10.7671 15.9653Z" fill="#307359"/>
<path fill-rule="evenodd" clip-rule="evenodd" d="M10.7671 12.9622L10.5012 12.7477L10.2353 12.9622L9.96931 12.7477L9.70337 12.9622V12.8703L9.87545 12.7477L9.78159 12.6711V12.5638H9.87545L9.96931 12.6711L10.0475 12.5638H10.1414V12.6711L10.0475 12.7477L10.2353 12.8703L10.4073 12.7477L10.3135 12.6711V12.5638H10.4073L10.5012 12.6711L10.5951 12.5638H10.6733V12.6711L10.5951 12.7477L10.7671 12.8703L10.9392 12.7477L10.861 12.6711V12.5638H10.9392L11.0018 12.6711L11.0957 12.5638H11.1739V12.6711L11.0957 12.7477L11.2677 12.8703V12.9622L11.0018 12.7477L10.7671 12.9622Z" fill="#307359"/>
<path fill-rule="evenodd" clip-rule="evenodd" d="M12.7538 14.6936L13.0354 14.4637L12.7538 14.2646L13.0354 14.0347L12.7538 13.8049H12.8946L13.0354 13.9428L13.1918 13.8815H13.3482V13.9428L13.1918 14.0347L13.3482 14.096V14.1726H13.1918L13.0354 14.096L12.8946 14.2646L13.0354 14.4024L13.1918 14.3258H13.3482V14.4024L13.1918 14.4637L13.3482 14.5557V14.6323H13.1918L13.0354 14.5557L12.8946 14.6936L13.0354 14.8468L13.1918 14.7855H13.3482V14.8468L13.1918 14.9387L13.3482 15.0153V15.0766H13.1918L13.0354 15.0153L12.8946 15.1532H12.7538L13.0354 14.9387L12.7538 14.6936Z" fill="#307359"/>
<path fill-rule="evenodd" clip-rule="evenodd" d="M8.21722 14.6936L7.91999 14.4637L8.21722 14.2646L7.91999 14.0347L8.21722 13.8049H8.06079L7.91999 13.9428L7.76356 13.8815H7.65405V13.9428L7.76356 14.0347L7.65405 14.096V14.1726H7.76356L7.91999 14.096L8.06079 14.2646L7.91999 14.4024L7.76356 14.3258H7.65405V14.4024L7.76356 14.4637L7.65405 14.5557V14.6323H7.76356L7.91999 14.5557L8.06079 14.6936L7.91999 14.8468L7.76356 14.7855H7.65405V14.8468L7.76356 14.9387L7.65405 15.0153V15.0766H7.76356L7.91999 15.0153L8.06079 15.1532H8.21722L7.91999 14.9387L8.21722 14.6936Z" fill="#307359"/>
<path d="M12.9884 15.4597H12.8633V15.5669H12.9884V15.4597Z" fill="#307359"/>
<path d="M12.8789 15.5669H12.7538V15.6742H12.8789V15.5669Z" fill="#307359"/>
<path d="M12.3158 16.0878H12.1907V16.1951H12.3158V16.0878Z" fill="#307359"/>
<path d="M12.4097 15.9653H12.3002V16.0878H12.4097V15.9653Z" fill="#307359"/>
<path d="M8.65516 15.9653H8.54565V16.0878H8.65516V15.9653Z" fill="#307359"/>
<path d="M8.10769 15.4597H7.98254V15.5669H8.10769V15.4597Z" fill="#307359"/>
<path d="M8.21719 15.5669H8.09204V15.6742H8.21719V15.5669Z" fill="#307359"/>
<path d="M8.21719 13.2686H8.09204V13.3912H8.21719V13.2686Z" fill="#307359"/>
<path d="M8.10769 13.3912H7.98254V13.4832H8.10769V13.3912Z" fill="#307359"/>
<path d="M8.7803 12.7477H8.65515V12.8703H8.7803V12.7477Z" fill="#307359"/>
<path d="M8.65516 12.8703H8.54565V12.9469H8.65516V12.8703Z" fill="#307359"/>
<path d="M12.3158 12.7477H12.1907V12.8703H12.3158V12.7477Z" fill="#307359"/>
<path d="M12.4097 12.8703H12.3002V12.9469H12.4097V12.8703Z" fill="#307359"/>
<path d="M12.8789 13.2686H12.7538V13.3912H12.8789V13.2686Z" fill="#307359"/>
<path d="M12.9884 13.3912H12.8633V13.4832H12.9884V13.3912Z" fill="#307359"/>
<path d="M8.7803 16.0878H8.65515V16.1951H8.7803V16.0878Z" fill="#307359"/>
<path fill-rule="evenodd" clip-rule="evenodd" d="M10.2196 14.4637H9.81287V14.2646H10.0162V14.096H10.2196V13.9122H10.423V14.1113C10.3547 14.1406 10.2979 14.1908 10.2613 14.2543C10.2246 14.3179 10.21 14.3914 10.2196 14.4637Z" fill="white"/>
<path fill-rule="evenodd" clip-rule="evenodd" d="M10.7984 14.4637H11.1582V14.2646H10.9079V14.096H10.7045V13.9122H10.4698V14.1113C10.5151 14.1133 10.5594 14.124 10.6004 14.1428C10.6414 14.1616 10.6782 14.1881 10.7087 14.2208C10.7392 14.2535 10.7629 14.2918 10.7783 14.3335C10.7936 14.3752 10.8005 14.4195 10.7984 14.4637Z" fill="#E0852A"/>
<path fill-rule="evenodd" clip-rule="evenodd" d="M10.7984 14.4637H11.1582V14.6629H10.9079V14.8774H10.7045V15.046H10.4698V14.8468C10.5638 14.8353 10.6499 14.7894 10.7109 14.7184C10.7718 14.6474 10.803 14.5564 10.7984 14.4637Z" fill="white"/>
<path fill-rule="evenodd" clip-rule="evenodd" d="M10.2196 14.4637H9.81287V14.6629H10.0162V14.8774H10.2196V15.046H10.423V14.8468C10.3505 14.8141 10.2912 14.7587 10.2544 14.6893C10.2176 14.62 10.2053 14.5406 10.2196 14.4637Z" fill="#E0852A"/>
<path fill-rule="evenodd" clip-rule="evenodd" d="M10.7984 14.4637H10.4698V14.1113C10.5584 14.1222 10.6402 14.1637 10.7004 14.2283C10.7606 14.2929 10.7953 14.3763 10.7984 14.4637Z" fill="#307359"/>
<path fill-rule="evenodd" clip-rule="evenodd" d="M10.7984 14.4637H10.4698V14.8468C10.5638 14.8353 10.6499 14.7894 10.7109 14.7184C10.7718 14.6474 10.803 14.5564 10.7984 14.4637Z" fill="#C03F2A"/>
<path fill-rule="evenodd" clip-rule="evenodd" d="M10.2196 14.4637H10.5481V14.8468C10.5008 14.8429 10.4547 14.8299 10.4126 14.8086C10.3704 14.7872 10.333 14.7579 10.3024 14.7223C10.2719 14.6867 10.2489 14.6455 10.2346 14.6011C10.2204 14.5567 10.2153 14.5101 10.2196 14.4637Z" fill="#307359"/>
<path fill-rule="evenodd" clip-rule="evenodd" d="M10.2196 14.4637H10.5481V14.1113C10.4582 14.119 10.3745 14.1595 10.3137 14.2248C10.2528 14.2901 10.2193 14.3754 10.2196 14.4637Z" fill="#C03F2A"/>
<path fill-rule="evenodd" clip-rule="evenodd" d="M10.8296 15.7661L10.5011 15.5669L10.1413 15.7661L9.81281 15.5669L9.453 15.7661V15.6742L9.7033 15.5669L9.57815 15.4597V15.3677H9.7033L9.81281 15.4597L9.90667 15.3677H10.0162V15.4597L9.90667 15.5669L10.1413 15.6742L10.376 15.5669L10.2665 15.4597V15.3677H10.376L10.5011 15.4597L10.595 15.3677H10.7045V15.4597L10.595 15.5669L10.8296 15.6742L11.0643 15.5669L10.9391 15.4597V15.3677H11.0643L11.1738 15.4597L11.2677 15.3677H11.3772V15.4597L11.2677 15.5669L11.5023 15.6742V15.7661L11.1738 15.5669L10.8296 15.7661Z" fill="#307359"/>
<path fill-rule="evenodd" clip-rule="evenodd" d="M10.8296 13.192L10.5011 13.3912L10.1413 13.192L9.81281 13.3912L9.453 13.192V13.2686L9.7033 13.3912L9.57815 13.4831V13.5904H9.7033L9.81281 13.4831L9.90667 13.5904H10.0162V13.4831L9.90667 13.3912L10.1413 13.2686L10.376 13.3912L10.2665 13.4831V13.5904H10.376L10.5011 13.4831L10.595 13.5904H10.7045V13.4831L10.595 13.3912L10.8296 13.2686L11.0643 13.3912L10.9391 13.4831V13.5904H11.0643L11.1738 13.4831L11.2677 13.5904H11.3772V13.4831L11.2677 13.3912L11.5023 13.2686V13.192L11.1738 13.3912L10.8296 13.192Z" fill="#307359"/>
<path fill-rule="evenodd" clip-rule="evenodd" d="M12.0655 14.7242L11.9247 14.4637L12.0655 14.2033L11.9247 13.9428L12.0655 13.713H11.9872L11.9247 13.8815L11.8308 13.8049H11.7369V13.8815L11.8308 13.9428L11.7369 14.0347V14.1113H11.8308L11.9247 14.0347L11.9872 14.2033L11.9247 14.3718L11.8308 14.2952H11.7369V14.3718L11.8308 14.4637L11.7369 14.5557V14.6323H11.8308L11.9247 14.5557L11.9872 14.7242L11.9247 14.8928L11.8308 14.8161H11.7369V14.8928L11.8308 14.9847L11.7369 15.0766V15.1532H11.8308L11.9247 15.0766L11.9872 15.2452H12.0655L11.9247 14.9847L12.0655 14.7242Z" fill="#307359"/>
<path fill-rule="evenodd" clip-rule="evenodd" d="M9.45301 13.2687L9.01499 13.7896V15.3218L9.45301 15.7508H11.5023L11.956 15.3218V13.7896L11.5023 13.3453L9.45301 13.2687ZM9.3435 12.9622L8.21716 14.0041V14.954L9.3435 15.9653H11.6275L12.7538 14.954V14.0041L11.6275 12.9622H9.3435Z" fill="#307359"/>
<path fill-rule="evenodd" clip-rule="evenodd" d="M9.93799 15.7661L10.1101 15.9653L10.2821 15.7661H9.93799Z" fill="#E0852A"/>
<path fill-rule="evenodd" clip-rule="evenodd" d="M9.93799 13.192L10.1101 12.9622L10.2821 13.192H9.93799Z" fill="#E0852A"/>
<path fill-rule="evenodd" clip-rule="evenodd" d="M10.6732 13.192L10.8609 12.9622L11.033 13.192H10.6732Z" fill="#E0852A"/>
<path fill-rule="evenodd" clip-rule="evenodd" d="M10.6732 15.7661L10.8609 15.9653L11.033 15.7661H10.6732Z" fill="#E0852A"/>
<path fill-rule="evenodd" clip-rule="evenodd" d="M9.57812 13.192L9.76585 12.9622L9.93793 13.192H9.57812Z" fill="#C03F2A"/>
<path fill-rule="evenodd" clip-rule="evenodd" d="M10.2821 13.192L10.5011 12.9622L10.6732 13.192H10.2821Z" fill="#C03F2A"/>
<path fill-rule="evenodd" clip-rule="evenodd" d="M11.0331 13.192L11.2052 12.9622L11.3772 13.192H11.0331Z" fill="#C03F2A"/>
<path fill-rule="evenodd" clip-rule="evenodd" d="M9.14014 15.4597L9.45301 15.7661H9.14014V15.4597Z" fill="#C03F2A"/>
<path fill-rule="evenodd" clip-rule="evenodd" d="M8.88989 14.7242L9.07762 14.4637L8.88989 14.2033L9.07762 13.9428L8.88989 13.713H8.98375L9.07762 13.8815L9.14019 13.8049H9.23405V13.8815L9.14019 13.9428L9.23405 14.0347V14.1113H9.14019L9.07762 14.0347L8.98375 14.2033L9.07762 14.3718L9.14019 14.2952H9.23405V14.3718L9.14019 14.4637L9.23405 14.5557V14.6323H9.14019L9.07762 14.5557L8.98375 14.7242L9.07762 14.8928L9.14019 14.8161H9.23405V14.8928L9.14019 14.9847L9.23405 15.0766V15.1532H9.14019L9.07762 15.0766L8.98375 15.2452H8.88989L9.07762 14.9847L8.88989 14.7242Z" fill="#307359"/>
<path fill-rule="evenodd" clip-rule="evenodd" d="M12.1907 14.2033H12.66L12.7538 14.2952L12.66 14.3718H12.1907V14.2033Z" fill="#C03F2A"/>
<path fill-rule="evenodd" clip-rule="evenodd" d="M9.1402 13.4832L8.8899 13.713V15.2452L9.1402 15.4597H8.7804V13.4832H9.1402Z" fill="#C03F2A"/>
<path fill-rule="evenodd" clip-rule="evenodd" d="M9.57812 15.7661L9.76585 15.9653L9.93793 15.7661H9.57812Z" fill="#C03F2A"/>
<path fill-rule="evenodd" clip-rule="evenodd" d="M10.2821 15.7661L10.5011 15.9653L10.6732 15.7661H10.2821Z" fill="#C03F2A"/>
<path fill-rule="evenodd" clip-rule="evenodd" d="M11.0331 15.7661L11.2052 15.9653L11.3772 15.7661H11.0331Z" fill="#C03F2A"/>
<path fill-rule="evenodd" clip-rule="evenodd" d="M11.8622 13.4832L12.0655 13.713V15.2452L11.8622 15.4597H12.1907V13.4832H11.8622Z" fill="#C03F2A"/>
<path fill-rule="evenodd" clip-rule="evenodd" d="M11.8621 15.4597L11.5023 15.7661H11.8621V15.4597Z" fill="#C03F2A"/>
<path fill-rule="evenodd" clip-rule="evenodd" d="M11.8621 13.4831L11.5023 13.192H11.8621V13.4831Z" fill="#C03F2A"/>
<path fill-rule="evenodd" clip-rule="evenodd" d="M9.14014 13.4831L9.45301 13.192H9.14014V13.4831Z" fill="#C03F2A"/>
<path fill-rule="evenodd" clip-rule="evenodd" d="M9.45306 13.2686L9.01504 13.7896V15.3218L9.45306 15.7508H11.5024L11.956 15.3218V13.7896L11.5024 13.3452L9.45306 13.2686ZM9.45306 13.192L8.88989 13.7896V15.3218L9.45306 15.8427H11.5024L12.0655 15.3218V13.7896L11.5024 13.2686L9.45306 13.192Z" fill="#307359"/>
<path fill-rule="evenodd" clip-rule="evenodd" d="M12.1907 14.3718H12.66L12.7538 14.4637L12.66 14.5863H12.1907V14.3718Z" fill="#E0852A"/>
<path fill-rule="evenodd" clip-rule="evenodd" d="M12.1907 14.5863H12.66L12.7538 14.6629L12.66 14.7549H12.1907V14.5863Z" fill="#C03F2A"/>
<path fill-rule="evenodd" clip-rule="evenodd" d="M12.1907 14.7549H12.66L12.7538 14.8468L12.66 14.954H12.1907V14.7549Z" fill="#E0852A"/>
<path fill-rule="evenodd" clip-rule="evenodd" d="M12.1907 14.0041H12.66L12.7538 14.1113L12.66 14.2033H12.1907V14.0041Z" fill="#E0852A"/>
<path fill-rule="evenodd" clip-rule="evenodd" d="M8.78033 14.2033H8.34231L8.21716 14.2952L8.34231 14.3718H8.78033V14.2033Z" fill="#C03F2A"/>
<path fill-rule="evenodd" clip-rule="evenodd" d="M8.78033 14.3718H8.34231L8.21716 14.4637L8.34231 14.5863H8.78033V14.3718Z" fill="#E0852A"/>
<path fill-rule="evenodd" clip-rule="evenodd" d="M8.78033 14.5863H8.34231L8.21716 14.6629L8.34231 14.7549H8.78033V14.5863Z" fill="#C03F2A"/>
<path fill-rule="evenodd" clip-rule="evenodd" d="M8.78033 14.7549H8.34231L8.21716 14.8468L8.34231 14.954H8.78033V14.7549Z" fill="#E0852A"/>
<path fill-rule="evenodd" clip-rule="evenodd" d="M8.78033 14.0041H8.34231L8.21716 14.1113L8.34231 14.2033H8.78033V14.0041Z" fill="#E0852A"/>
<path fill-rule="evenodd" clip-rule="evenodd" d="M8.09204 13.3912V15.5669H8.65521V16.0879H12.3002V15.5669H12.8633V13.3912H12.3002V12.8703H8.65521V13.3912H8.09204ZM8.21719 13.4832V15.4597H8.78036V15.9653H12.1907V15.4597H12.7538V13.4832H12.1907V12.9622H8.78036V13.4832H8.21719Z" fill="#AB3B2C"/>
<path fill-rule="evenodd" clip-rule="evenodd" d="M13.3483 2.72728L12.9885 2.20634V1.83862L12.66 1.42493H11.956L11.3772 1.04189H9.57822L9.01505 1.42493H8.34237L7.98257 1.83862V2.20634L7.65405 2.72728V3.73851L7.98257 4.25945V4.6425L8.34237 5.01022H9.01505L9.57822 5.39326H11.3772L11.956 5.01022H12.66L12.9885 4.6425V4.25945L13.3483 3.73851V2.72728Z" fill="#C03F2A"/>
<path fill-rule="evenodd" clip-rule="evenodd" d="M7.74792 3.21758V3.60062L8.09208 4.12156V4.48928L8.4206 4.90297H9.14021L9.70338 5.27069H10.5012V3.21758H7.74792Z" fill="#E0852A"/>
<path fill-rule="evenodd" clip-rule="evenodd" d="M9.51565 4.12155L9.10891 4.44331H8.87426L8.95248 4.55056L8.7804 4.78039L8.87426 4.90296L9.10891 4.78039L9.18713 4.90296L9.23406 4.61185L9.70337 4.25945L9.51565 4.12155Z" fill="#C03F2A"/>
<path fill-rule="evenodd" clip-rule="evenodd" d="M9.07754 3.86108L8.65516 4.21348H8.38922L8.48308 4.30541L8.34229 4.51992L8.38922 4.64249L8.65516 4.51992L8.74902 4.64249L8.78031 4.35138L9.23397 3.99898L9.07754 3.86108Z" fill="#C03F2A"/>
<path fill-rule="evenodd" clip-rule="evenodd" d="M8.84294 3.35547L8.42056 3.69255H8.1859L8.27977 3.7998L8.09204 3.99898L8.1859 4.12156L8.42056 3.99898L8.51442 4.12156L8.54571 3.83044L9.01502 3.47804L8.84294 3.35547Z" fill="#C03F2A"/>
<path fill-rule="evenodd" clip-rule="evenodd" d="M13.2231 3.21757V2.83453L12.8633 2.32891V1.94587L12.5504 1.56282H11.8621L11.2676 1.16446H10.5011V3.21757H13.2231Z" fill="#E0852A"/>
<path fill-rule="evenodd" clip-rule="evenodd" d="M10.5011 5.2707H10.2665L10.0162 5.01023H9.64075L9.43738 4.90298L9.54688 4.74976L9.76589 4.90298H9.96926L10.1726 4.48929L10.5011 4.64251V4.90298H10.1726L10.5011 5.2707Z" fill="#C03F2A"/>
<path fill-rule="evenodd" clip-rule="evenodd" d="M7.74792 3.21757V2.83453L8.09208 2.32891V1.94587L8.4206 1.56282H9.14021L9.70338 1.16446H10.5012V3.21757H7.74792Z" fill="white"/>
<path fill-rule="evenodd" clip-rule="evenodd" d="M10.5011 1.16446H10.2665L10.0162 1.42493H9.64075L9.43738 1.56282L9.54688 1.6854L9.76589 1.56282H9.96926L10.1726 1.94587L10.5011 1.83862V1.56282H10.1726L10.5011 1.16446Z" fill="#C03F2A"/>
<path fill-rule="evenodd" clip-rule="evenodd" d="M10.5011 1.16446H10.7045L10.9391 1.42493H11.3302L11.5336 1.56282L11.4397 1.6854L11.2051 1.56282H11.0017L10.7983 1.94587L10.5011 1.83862V1.56282H10.7983L10.5011 1.16446Z" fill="#C03F2A"/>
<path fill-rule="evenodd" clip-rule="evenodd" d="M13.2231 3.21758V3.60062L12.8633 4.12156V4.48928L12.5504 4.90297H11.8621L11.2676 5.27069H10.5011V3.21758H13.2231Z" fill="white"/>
<path fill-rule="evenodd" clip-rule="evenodd" d="M10.5011 5.2707H10.7045L10.9391 5.01023H11.3302L11.5336 4.90298L11.4397 4.74976L11.2051 4.90298H11.0017L10.7983 4.48929L10.5011 4.64251V4.90298H10.7983L10.5011 5.2707Z" fill="#C03F2A"/>
<path fill-rule="evenodd" clip-rule="evenodd" d="M9.07754 2.57407L8.65516 2.26763H8.38922L8.48308 2.14506L8.34229 1.91523L8.38922 1.83862L8.65516 1.91523L8.74902 1.83862L8.78031 2.11441L9.23397 2.46681L9.07754 2.57407Z" fill="#C03F2A"/>
<path fill-rule="evenodd" clip-rule="evenodd" d="M11.4398 2.32891L11.8622 1.99183H12.0968L12.0342 1.88458L12.1907 1.68539L12.0968 1.56282L11.8622 1.68539L11.7683 1.56282L11.737 1.85393L11.2677 2.20633L11.4398 2.32891Z" fill="#C03F2A"/>
<path fill-rule="evenodd" clip-rule="evenodd" d="M9.51565 2.32891L9.10891 1.99183H8.87426L8.95248 1.88458L8.7804 1.68539L8.87426 1.56282L9.10891 1.68539L9.18713 1.56282L9.23406 1.85393L9.70337 2.20633L9.51565 2.32891Z" fill="#C03F2A"/>
<path fill-rule="evenodd" clip-rule="evenodd" d="M8.84294 3.09501L8.42056 2.75793H8.1859L8.27977 2.666L8.09204 2.43617L8.1859 2.32892L8.42056 2.43617L8.51442 2.32892L8.54571 2.60471L9.01502 2.95711L8.84294 3.09501Z" fill="#C03F2A"/>
<path fill-rule="evenodd" clip-rule="evenodd" d="M7.95129 3.21758H8.0608L8.15466 3.35547L8.27981 3.21758H10.5012V5.01022H10.3761L10.5012 5.13279V5.27069L10.1727 4.90297V4.74975H10.2666V4.90297H10.3761V4.74975L9.51566 4.21349H8.81169V3.66191L8.48318 3.35547H8.27981L8.15466 3.47805L8.27981 3.60062H8.15466L7.95129 3.21758Z" fill="white"/>
<path fill-rule="evenodd" clip-rule="evenodd" d="M7.95129 3.21757H8.0608L8.15466 3.095L8.27981 3.21757H10.5012V1.42493H10.3761L10.5012 1.30236V1.16446L10.1727 1.56282V1.6854H10.2666V1.56282H10.3761V1.6854L9.51566 2.26763H8.81169V2.81921L8.48318 3.095H8.27981L8.15466 2.9571L8.27981 2.83453H8.15466L7.95129 3.21757Z" fill="#E0852A"/>
<path fill-rule="evenodd" clip-rule="evenodd" d="M8.42053 3.21758H10.5011V4.74975L9.57816 4.12156H8.88984V3.60062L8.42053 3.21758Z" fill="#307359"/>
<path fill-rule="evenodd" clip-rule="evenodd" d="M11.8934 2.57407L12.3001 2.26763H12.5661L12.4878 2.14506L12.6599 1.91523L12.5661 1.83862L12.3001 1.91523L12.2375 1.83862L12.1906 2.11441L11.7369 2.46681L11.8934 2.57407Z" fill="#C03F2A"/>
<path fill-rule="evenodd" clip-rule="evenodd" d="M12.1281 3.09501L12.5505 2.75793H12.7695L12.7226 2.666L12.8634 2.43617L12.7695 2.32892L12.5505 2.43617L12.4567 2.32892L12.4254 2.60471L11.9561 2.95711L12.1281 3.09501Z" fill="#C03F2A"/>
<path fill-rule="evenodd" clip-rule="evenodd" d="M13.0197 3.21757H12.8946L12.8164 3.095L12.6912 3.21757H10.5011V1.42493H10.595L10.5011 1.30236V1.16446L10.7983 1.56282V1.6854H10.7045V1.56282H10.595V1.6854L11.4397 2.26763H12.1593V2.81921L12.4878 3.095H12.6912L12.8164 2.9571L12.6912 2.83453H12.8164L13.0197 3.21757Z" fill="white"/>
<path fill-rule="evenodd" clip-rule="evenodd" d="M12.5504 3.21757H10.5011V1.68539L11.3771 2.32891H12.0655V2.83453L12.5504 3.21757Z" fill="#307359"/>
<path fill-rule="evenodd" clip-rule="evenodd" d="M11.4398 4.12155L11.8622 4.44331H12.0968L12.0342 4.55056L12.1907 4.78039L12.0968 4.90296L11.8622 4.78039L11.7683 4.90296L11.737 4.61185L11.2677 4.25945L11.4398 4.12155Z" fill="#C03F2A"/>
<path fill-rule="evenodd" clip-rule="evenodd" d="M11.8934 3.86108L12.3001 4.21348H12.5661L12.4878 4.30541L12.6599 4.51992L12.5661 4.64249L12.3001 4.51992L12.2375 4.64249L12.1906 4.35138L11.7369 3.99898L11.8934 3.86108Z" fill="#C03F2A"/>
<path fill-rule="evenodd" clip-rule="evenodd" d="M12.1281 3.35547L12.5505 3.69255H12.7695L12.7226 3.7998L12.8634 3.99898L12.7695 4.12156L12.5505 3.99898L12.4567 4.12156L12.4254 3.83044L11.9561 3.47804L12.1281 3.35547Z" fill="#C03F2A"/>
<path fill-rule="evenodd" clip-rule="evenodd" d="M13.0197 3.21758H12.8946L12.8164 3.35547L12.6912 3.21758H10.5011V5.01022H10.595L10.5011 5.13279V5.27069L10.7983 4.90297V4.74975H10.7045V4.90297H10.595V4.74975L11.4397 4.21349H12.1593V3.66191L12.4878 3.35547H12.6912L12.8164 3.47805L12.6912 3.60062H12.8164L13.0197 3.21758Z" fill="#E0852A"/>
<path fill-rule="evenodd" clip-rule="evenodd" d="M12.5504 3.21758H10.5011V4.74975L11.3771 4.12156H12.0655V3.60062L12.5504 3.21758Z" fill="#C03F2A"/>
<path fill-rule="evenodd" clip-rule="evenodd" d="M8.42053 3.21757H10.5011V1.68539L9.57816 2.32891H8.88984V2.83453L8.42053 3.21757Z" fill="#C03F2A"/>
<path fill-rule="evenodd" clip-rule="evenodd" d="M10.7045 3.21758L11.2676 2.83454H11.6274L11.5023 2.72728L11.7369 2.46681L11.6274 2.32892L11.2676 2.46681L11.1738 2.32892L11.1268 2.666L10.5011 3.06436L10.7045 3.21758Z" fill="#C03F2A"/>
<path fill-rule="evenodd" clip-rule="evenodd" d="M10.2665 3.21758L9.70332 3.60062H9.34351L9.45302 3.73851L9.23401 3.99898L9.34351 4.12156L9.70332 3.99898L9.81282 4.12156L9.84411 3.76916L10.5011 3.35547L10.2665 3.21758Z" fill="#C03F2A"/>
<path fill-rule="evenodd" clip-rule="evenodd" d="M10.2665 3.21758L9.70332 2.83454H9.34351L9.45302 2.72728L9.23401 2.46681L9.34351 2.32892L9.70332 2.46681L9.81282 2.32892L9.84411 2.666L10.5011 3.06436L10.2665 3.21758Z" fill="#307359"/>
<path fill-rule="evenodd" clip-rule="evenodd" d="M10.7045 3.21758L11.2676 3.60062H11.6274L11.5023 3.73851L11.7369 3.99898L11.6274 4.12156L11.2676 3.99898L11.1738 4.12156L11.1268 3.76916L10.5011 3.35547L10.7045 3.21758Z" fill="#307359"/>
<path fill-rule="evenodd" clip-rule="evenodd" d="M9.81287 3.21758L10.5012 2.57407L11.1739 3.21758L10.5012 3.86109L9.81287 3.21758Z" fill="white"/>
<path fill-rule="evenodd" clip-rule="evenodd" d="M8.2798 3.47804L8.35802 3.60062L8.2798 3.73851H8.15465L7.85742 3.21758H7.95128L8.15465 3.60062H8.2798L8.15465 3.47804L8.2798 3.35547H8.48317V3.47804H8.2798Z" fill="#C03F2A"/>
<path fill-rule="evenodd" clip-rule="evenodd" d="M8.2798 2.95711L8.35802 2.83453L8.2798 2.72728H8.15465L7.85742 3.21758H7.95128L8.15465 2.83453H8.2798L8.15465 2.95711L8.2798 3.095H8.48317V2.95711H8.2798Z" fill="#C03F2A"/>
<path fill-rule="evenodd" clip-rule="evenodd" d="M12.6913 3.47804L12.5974 3.60062L12.6913 3.73851H12.8164L13.1137 3.21758H13.0198L12.8164 3.60062H12.6913L12.8164 3.47804L12.6913 3.35547H12.4879V3.47804H12.6913Z" fill="#C03F2A"/>
<path fill-rule="evenodd" clip-rule="evenodd" d="M12.6913 2.95711L12.5974 2.83453L12.6913 2.72728H12.8164L13.1137 3.21758H13.0198L12.8164 2.83453H12.6913L12.8164 2.95711L12.6913 3.095H12.4879V2.95711H12.6913Z" fill="#C03F2A"/>
<path d="M10.5793 2.72728H10.376V3.73852H10.5793V2.72728Z" fill="#C03F2A"/>
<path d="M10.9079 2.95711H10.0475V3.47805H10.9079V2.95711Z" fill="#C03F2A"/>
<path fill-rule="evenodd" clip-rule="evenodd" d="M9.54693 23.2738L7.65405 24.3463V26.1849L9.54693 27.2574H11.4398L13.3483 26.1849V24.3463L11.4398 23.2738H9.54693Z" fill="#307359"/>
<path fill-rule="evenodd" clip-rule="evenodd" d="M8.34229 24.8366H8.45179V24.5761H8.68644V24.8366H8.81159V24.239H8.68644V24.4842H8.45179V24.239H8.34229V24.8366Z" fill="#CF3B1D"/>
<path fill-rule="evenodd" clip-rule="evenodd" d="M11.2365 26.8897H11.346V26.6445H11.5963V26.8897H11.7058V26.2921H11.5963V26.5526H11.346V26.2921H11.2365V26.8897Z" fill="#CF3B1D"/>
<path fill-rule="evenodd" clip-rule="evenodd" d="M12.1594 24.8366H12.2846V24.5761H12.5036V24.8366H12.6287V24.239H12.5036V24.4842H12.2846V24.239H12.1594V24.8366Z" fill="#CF3B1D"/>
<path fill-rule="evenodd" clip-rule="evenodd" d="M12.1594 25.8784H12.2846V25.618H12.5036V25.8784H12.6287V25.2503H12.5036V25.5414H12.2846V25.2503H12.1594V25.8784Z" fill="#CF3B1D"/>
<path fill-rule="evenodd" clip-rule="evenodd" d="M10.5011 27.1655V25.2503H13.2231V26.1236L11.4241 27.1655H10.5011Z" fill="#E0852A"/>
<path fill-rule="evenodd" clip-rule="evenodd" d="M10.5012 23.3657V25.2503H7.74792V24.4076L9.57823 23.3657H10.5012Z" fill="#E0852A"/>
<path fill-rule="evenodd" clip-rule="evenodd" d="M10.5011 23.3657V25.2503H13.2231V24.4076L11.4241 23.3657H10.5011Z" fill="white"/>
<path fill-rule="evenodd" clip-rule="evenodd" d="M10.5012 27.1655V25.2503H7.74792V26.1236L9.57823 27.1655H10.5012Z" fill="white"/>
<path fill-rule="evenodd" clip-rule="evenodd" d="M11.956 24.5148H13.0354L11.956 23.9939V24.5148ZM13.2231 24.4382V25.2809H11.5023V24.5148H11.1268L10.6732 24.2543V23.6568L10.9391 23.381H10.595V24.2543H10.5011V23.3044H11.4241L13.2231 24.4382Z" fill="#E0852A"/>
<path fill-rule="evenodd" clip-rule="evenodd" d="M9.57812 24.668V25.8631H9.84407L10.5011 26.2002L11.1268 25.8631H11.4241V24.668H11.1268L10.5011 24.3156L9.84407 24.668H9.57812Z" fill="#C03F2A"/>
<path fill-rule="evenodd" clip-rule="evenodd" d="M9.01506 26.047H7.92L9.01506 26.5679V26.047ZM7.74792 26.1389V25.2656H9.48437V25.9551H9.84417L10.2196 26.2002V26.8131L9.95368 27.0735H10.3761V26.2002H10.5012V27.1655H9.57823L7.74792 26.1389Z" fill="#E0852A"/>
<path fill-rule="evenodd" clip-rule="evenodd" d="M9.01506 24.5148H7.92L9.01506 23.9939V24.5148ZM7.74792 24.4382V25.2809H9.48437V24.5148H9.84417L10.2196 24.3156V23.7181L9.95368 23.4423H10.3761V24.3156H10.5012V23.3657H9.57823L7.74792 24.4382Z" fill="white"/>
<path fill-rule="evenodd" clip-rule="evenodd" d="M11.956 26.047H13.0354L11.956 26.5679V26.047ZM13.2231 26.1389V25.2656H11.5023V25.9551H11.1268L10.6732 26.2155V26.8284L10.9391 27.0889H10.595V26.2002H10.5011V27.1655H11.4241L13.2231 26.1389Z" fill="white"/>
<path fill-rule="evenodd" clip-rule="evenodd" d="M8.27979 25.9397H8.38929V25.6793H8.62394V25.9397H8.74909V25.3422H8.62394V25.5873H8.38929V25.3422H8.27979V25.9397Z" fill="#C03F2A"/>
<path fill-rule="evenodd" clip-rule="evenodd" d="M9.37476 26.8131H9.48426V26.5526H9.71892V26.8131H9.84406V26.2002H9.71892V26.4607H9.48426V26.2002H9.37476V26.8131Z" fill="#C03F2A"/>
<path fill-rule="evenodd" clip-rule="evenodd" d="M8.27979 24.5761H8.38929V24.8366H8.62394V24.5761H8.74909V25.189H8.62394V24.9285H8.38929V25.189H8.27979V24.5761Z" fill="#C03F2A"/>
<path fill-rule="evenodd" clip-rule="evenodd" d="M9.37476 23.7181H9.48426V23.9632H9.71892V23.7181H9.84406V24.3156H9.71892V24.0552H9.48426V24.3156H9.37476V23.7181Z" fill="#C03F2A"/>
<path fill-rule="evenodd" clip-rule="evenodd" d="M12.2219 25.189H12.3314V24.9285H12.5661V25.189H12.6912V24.5761H12.5661V24.8366H12.3314V24.5761H12.2219V25.189Z" fill="#C03F2A"/>
<path fill-rule="evenodd" clip-rule="evenodd" d="M11.127 26.8131H11.2365V26.5526H11.4711V26.8131H11.5963V26.2002H11.4711V26.4607H11.2365V26.2002H11.127V26.8131Z" fill="#C03F2A"/>
<path fill-rule="evenodd" clip-rule="evenodd" d="M12.2219 25.9397H12.3314V25.6793H12.5661V25.9397H12.6912V25.3422H12.5661V25.5873H12.3314V25.3422H12.2219V25.9397Z" fill="#C03F2A"/>
<path fill-rule="evenodd" clip-rule="evenodd" d="M11.127 24.3156H11.2365V24.0552H11.4711V24.3156H11.5963V23.7181H11.4711V23.9632H11.2365V23.7181H11.127V24.3156Z" fill="#C03F2A"/>
<path fill-rule="evenodd" clip-rule="evenodd" d="M10.595 25.2503L10.9391 24.9591H11.1269V25.097H10.9391V25.189H11.2051V24.8672H10.9391V24.6374H10.595V24.8672H10.6732V24.6987H10.8609V24.8672L10.5011 25.189L10.11 24.8672V24.6987H10.2821V24.8672H10.376V24.6374H10.0162V24.8672H9.76587V25.189H10.0162V25.097H9.84409V24.9591H10.0162L10.376 25.2503L10.0162 25.572H9.84409V25.4188H10.0162V25.3422H9.76587V25.6486H10.0162V25.8785H10.376V25.6486H10.2821V25.8325H10.11V25.6486L10.5011 25.3422L10.8609 25.6486V25.8325H10.6732V25.6486H10.595V25.8785H10.9391V25.6486H11.2051V25.3422H10.9391V25.4188H11.1269V25.572H10.9391L10.595 25.2503Z" fill="#307359"/>
<path fill-rule="evenodd" clip-rule="evenodd" d="M7.91992 9.2237L8.092 8.99387H9.17141L9.96924 7.99796H11.033L11.8308 8.99387H12.8633L13.0354 9.2237L12.8633 9.45352H11.8308L11.033 10.4648H9.96924L9.17141 9.45352H8.092L7.91992 9.2237Z" fill="#C03F2A"/>
<path fill-rule="evenodd" clip-rule="evenodd" d="M8.01379 8.96324L8.09201 8.87131H9.18707L10.0162 7.92136H10.9392L11.7683 8.87131H12.8633L12.9572 8.96324L12.8633 9.03985H11.7683L11.033 9.88254H9.93796L9.18707 9.03985H8.09201L8.01379 8.96324Z" fill="#C03F2A"/>
<path fill-rule="evenodd" clip-rule="evenodd" d="M10.9392 9.03984L11.299 9.42289L11.1269 9.62207H11.0331H10.9392L11.0331 9.74464H11.2051L11.3772 9.54546V9.33096L11.0331 8.93259L11.3772 8.5189V8.35036L11.2051 8.15118H11.0331L10.9392 8.24311V8.35036H11.0331L11.1269 8.24311L11.299 8.44229L10.9392 8.84066L10.595 8.44229L10.9392 8.02861V7.93668L10.5794 8.35036L10.2196 7.93668H10.0475V8.02861L10.4073 8.44229L10.0475 8.84066L9.70336 8.44229L9.87544 8.24311L9.9693 8.35036V8.24311V8.15118H9.78158L9.6095 8.35036V8.5189L9.9693 8.93259L9.6095 9.33096V9.54546L9.78158 9.74464H9.9693V9.62207H9.87544L9.70336 9.42289L10.0475 9.03984L10.4073 9.42289L10.0475 9.82125V9.94383H10.2196L10.5794 9.54546L10.9392 9.94383V9.82125L10.595 9.42289L10.9392 9.03984ZM10.5012 8.5189L10.2196 8.93259L10.5794 9.33096L10.9392 8.93259L10.5012 8.5189Z" fill="#E0852A"/>
<path fill-rule="evenodd" clip-rule="evenodd" d="M9.96924 10.0358V10.8018L10.0475 10.7252L10.1413 10.8018L10.2352 10.7252L10.3134 10.8018L10.4073 10.7252L10.5011 10.8018L10.595 10.7252L10.6732 10.8018L10.7671 10.7252L10.8609 10.8018L10.9391 10.7252L11.033 10.8018V10.0358H9.96924Z" fill="#E0852A"/>
<path fill-rule="evenodd" clip-rule="evenodd" d="M11.033 7.82943V7.04802L10.9391 7.13995L10.8609 7.04802L10.7671 7.13995L10.6732 7.04802L10.595 7.13995L10.5011 7.04802L10.4073 7.13995L10.3134 7.04802L10.2352 7.13995L10.1413 7.04802L10.0475 7.13995L9.96924 7.04802V7.82943H11.033Z" fill="#E0852A"/>
<path fill-rule="evenodd" clip-rule="evenodd" d="M12.5035 8.73341V7.93668L12.4253 8.02861L12.3314 7.93668L12.2375 8.02861L12.1593 7.93668L12.0968 8.02861L12.0029 7.93668L11.9247 8.02861L11.8308 7.93668V8.73341H12.5035Z" fill="#E0852A"/>
<path fill-rule="evenodd" clip-rule="evenodd" d="M9.17139 8.73341V7.93668L9.07753 8.02861L8.98367 7.93668L8.8898 8.02861L8.81159 7.93668L8.71772 8.02861L8.62386 7.93668L8.54564 8.02861L8.45178 7.93668V8.73341H9.17139Z" fill="#E0852A"/>
<path fill-rule="evenodd" clip-rule="evenodd" d="M12.5035 9.13177V9.94383L12.4253 9.82125L12.3314 9.94383L12.2375 9.82125L12.1593 9.94383L12.0968 9.82125L12.0029 9.94383L11.9247 9.82125L11.8308 9.94383V9.13177H12.5035Z" fill="#E0852A"/>
<path fill-rule="evenodd" clip-rule="evenodd" d="M9.17139 9.13177V9.94383L9.07753 9.82125L8.98367 9.94383L8.8898 9.82125L8.81159 9.94383L8.71772 9.82125L8.62386 9.94383L8.54564 9.82125L8.45178 9.94383V9.13177H9.17139Z" fill="#E0852A"/>
<path fill-rule="evenodd" clip-rule="evenodd" d="M11.0331 10.0358V10.5261L11.1269 10.4341L11.2052 10.5261L11.299 10.4341L11.3772 10.5261L11.4711 10.4341L11.565 10.5261L11.6588 10.4341L11.737 10.5261L11.8309 10.4341V9.13177L11.0331 10.0358Z" fill="#307359"/>
<path fill-rule="evenodd" clip-rule="evenodd" d="M9.96921 10.0358V10.5261L9.87535 10.4341L9.78149 10.5261L9.70327 10.4341L9.60941 10.5261L9.51555 10.4341L9.43733 10.5261L9.34347 10.4341L9.24961 10.5261L9.17139 10.4341V9.13177L9.96921 10.0358Z" fill="#307359"/>
<path fill-rule="evenodd" clip-rule="evenodd" d="M9.96921 7.82942V7.33913L9.87535 7.44638L9.78149 7.33913L9.70327 7.44638L9.60941 7.33913L9.51555 7.44638L9.43733 7.33913L9.34347 7.44638L9.24961 7.33913L9.17139 7.44638V8.73341L9.96921 7.82942Z" fill="#307359"/>
<path fill-rule="evenodd" clip-rule="evenodd" d="M11.0331 7.82942V7.33913L11.1269 7.44638L11.2052 7.33913L11.299 7.44638L11.3772 7.33913L11.4711 7.44638L11.565 7.33913L11.6588 7.44638L11.737 7.33913L11.8309 7.44638V8.73341L11.0331 7.82942Z" fill="#307359"/>
<path fill-rule="evenodd" clip-rule="evenodd" d="M8.45189 9.74465L8.35803 9.62207L8.27981 9.74465L8.18595 9.62207L8.09208 9.74465L8.01387 9.62207L7.92 9.74465L7.82614 9.62207L7.74792 9.74465V8.15118L7.82614 8.24311L7.92 8.15118L8.01387 8.24311L8.09208 8.15118L8.18595 8.24311L8.27981 8.15118L8.35803 8.24311L8.45189 8.15118V8.73341H8.09208L7.92 8.93259L8.09208 9.13178H8.45189V9.74465Z" fill="#307359"/>
<path fill-rule="evenodd" clip-rule="evenodd" d="M12.5035 9.74465L12.5974 9.62207L12.6913 9.74465L12.7695 9.62207L12.8633 9.74465L12.9572 9.62207L13.0354 9.74465L13.1293 9.62207L13.2231 9.74465V8.15118L13.1293 8.24311L13.0354 8.15118L12.9572 8.24311L12.8633 8.15118L12.7695 8.24311L12.6913 8.15118L12.5974 8.24311L12.5035 8.15118V8.73341H12.8633L13.0354 8.93259L12.8633 9.13178H12.5035V9.74465Z" fill="#307359"/>
<path fill-rule="evenodd" clip-rule="evenodd" d="M9.51562 10.097C9.51562 10.097 9.51562 10.097 9.51562 10.2043C9.52504 10.2288 9.53968 10.251 9.55856 10.2695C9.57744 10.288 9.60014 10.3023 9.62513 10.3116C9.65417 10.3116 9.68203 10.3003 9.70256 10.2801C9.7231 10.26 9.73464 10.2327 9.73464 10.2043V10.097V9.94383C9.73464 9.94383 9.92236 10.2043 9.92236 10.097C9.92236 9.98979 9.73464 9.8519 9.73464 9.8519C9.73464 9.8519 9.56256 10.0358 9.56256 10.097C9.56256 10.1583 9.73464 9.94383 9.73464 9.94383L9.51562 10.097Z" fill="white"/>
<path fill-rule="evenodd" clip-rule="evenodd" d="M10.4386 10.4035C10.4386 10.4035 10.3447 10.4954 10.3447 10.5567C10.3447 10.618 10.4386 10.7252 10.5011 10.7252C10.5637 10.7252 10.6106 10.618 10.6106 10.5567C10.6227 10.5063 10.6227 10.4539 10.6106 10.4035V10.1737C10.6106 10.1737 10.7514 10.5261 10.7514 10.3728C10.7264 10.2623 10.6785 10.158 10.6106 10.0664H10.4386C10.4386 10.0664 10.2665 10.3116 10.2821 10.3728C10.2978 10.4341 10.4386 10.1737 10.4386 10.1737V10.4035Z" fill="#C03F2A"/>
<path fill-rule="evenodd" clip-rule="evenodd" d="M9.70331 8.93259C9.70331 8.93259 9.60945 9.03985 9.51559 9.03985C9.42172 9.03985 9.34351 9.03985 9.34351 8.93259C9.34351 8.82534 9.34351 8.84066 9.51559 8.84066C9.68767 8.84066 9.70331 8.84066 9.70331 8.93259Z" fill="#307359"/>
<path fill-rule="evenodd" clip-rule="evenodd" d="M10.6733 8.93259C10.6733 8.93259 10.6733 9.03985 10.5012 9.03985C10.3291 9.03985 10.3135 9.03985 10.3135 8.93259C10.3135 8.82534 10.3135 8.84066 10.5012 8.84066C10.6889 8.84066 10.6733 8.84066 10.6733 8.93259Z" fill="#307359"/>
<path fill-rule="evenodd" clip-rule="evenodd" d="M11.6588 8.93259C11.6588 8.93259 11.5649 9.03985 11.471 9.03985C11.3772 9.03985 11.299 9.03985 11.299 8.93259C11.299 8.82534 11.299 8.84066 11.471 8.84066C11.6431 8.84066 11.6588 8.84066 11.6588 8.93259Z" fill="#307359"/>
<path fill-rule="evenodd" clip-rule="evenodd" d="M9.4843 7.79879C9.46129 7.75555 9.44544 7.709 9.43737 7.66089V7.53831C9.43737 7.53831 9.56252 7.63025 9.56252 7.66089C9.5707 7.7065 9.5707 7.75317 9.56252 7.79879V7.93668C9.56252 7.93668 9.71895 7.69153 9.71895 7.79879C9.71895 7.90604 9.56252 8.02861 9.56252 8.02861H9.4843C9.4843 8.02861 9.34351 7.86007 9.34351 7.79879C9.34351 7.7375 9.4843 7.93668 9.4843 7.93668V7.79879Z" fill="white"/>
<path fill-rule="evenodd" clip-rule="evenodd" d="M10.4073 7.47703C10.4073 7.47703 10.3135 7.36978 10.3135 7.30849C10.3487 7.24319 10.4032 7.1898 10.4699 7.15527C10.4699 7.15527 10.5951 7.2472 10.5951 7.30849C10.5951 7.36978 10.5012 7.47703 10.5012 7.47703V7.66089C10.5012 7.66089 10.6733 7.29317 10.6733 7.46171C10.6733 7.63025 10.5012 7.75282 10.5012 7.75282H10.4073C10.4073 7.75282 10.2196 7.56896 10.2196 7.50767C10.2196 7.44639 10.3604 7.70686 10.3604 7.70686L10.4073 7.47703Z" fill="#C03F2A"/>
<path fill-rule="evenodd" clip-rule="evenodd" d="M11.4241 10.097C11.4241 10.097 11.3303 10.097 11.3303 10.2043C11.3303 10.3116 11.4241 10.3116 11.4398 10.3116C11.4554 10.3116 11.5649 10.3116 11.5649 10.2043C11.5649 10.097 11.471 10.097 11.471 10.097V9.94383C11.471 9.94383 11.6588 10.2043 11.6588 10.097C11.6588 9.98979 11.471 9.8519 11.471 9.8519C11.471 9.8519 11.2833 10.0358 11.2833 10.097C11.2833 10.1583 11.471 9.94383 11.471 9.94383L11.4241 10.097Z" fill="white"/>
<path fill-rule="evenodd" clip-rule="evenodd" d="M11.3772 7.79879C11.3702 7.75308 11.3702 7.70659 11.3772 7.66089C11.3772 7.66089 11.3772 7.53831 11.4711 7.53831C11.565 7.53831 11.5806 7.63025 11.5806 7.66089C11.5888 7.7065 11.5888 7.75317 11.5806 7.79879V7.93668C11.5806 7.93668 11.737 7.69153 11.737 7.79879C11.737 7.90604 11.5806 8.02861 11.5806 8.02861H11.3772C11.3772 8.02861 11.2365 7.86007 11.2365 7.79879C11.2365 7.7375 11.3772 7.93668 11.3772 7.93668V7.79879Z" fill="white"/>
<path fill-rule="evenodd" clip-rule="evenodd" d="M8.74908 9.54546C8.74908 9.54546 8.65522 9.62207 8.65522 9.65271C8.65522 9.68335 8.78037 9.77528 8.81166 9.77528C8.84407 9.76881 8.87416 9.75407 8.89889 9.73254C8.92361 9.71102 8.94209 9.68348 8.95245 9.65271V9.54546V9.39224C8.95245 9.39224 9.12453 9.62207 9.12453 9.51481C9.12453 9.40756 8.95245 9.30031 8.95245 9.30031H8.74908C8.74908 9.30031 8.54572 9.46885 8.577 9.51481C8.60829 9.56078 8.74908 9.39224 8.74908 9.39224V9.54546Z" fill="#C03F2A"/>
<path fill-rule="evenodd" clip-rule="evenodd" d="M8.65521 8.41165C8.65521 8.41165 8.65521 8.35036 8.65521 8.28908C8.65521 8.22779 8.74907 8.18182 8.81165 8.18182C8.84288 8.1854 8.87252 8.19728 8.89734 8.21619C8.92216 8.2351 8.94122 8.26031 8.95244 8.28908L8.84293 8.41165V8.54955C8.84293 8.54955 9.01501 8.31972 9.01501 8.44229C9.01501 8.56487 8.84293 8.64148 8.84293 8.64148H8.65521C8.65521 8.64148 8.45184 8.47294 8.48313 8.44229C8.51442 8.41165 8.65521 8.54955 8.65521 8.54955V8.41165Z" fill="#C03F2A"/>
<path fill-rule="evenodd" clip-rule="evenodd" d="M12.1594 9.51481C12.1594 9.51481 12.0655 9.51481 12.0655 9.62207C12.0655 9.72932 12.1594 9.74464 12.222 9.74464C12.2845 9.74464 12.3628 9.65271 12.3628 9.62207C12.3628 9.59142 12.2376 9.51481 12.2376 9.51481V9.3616C12.2376 9.3616 12.4253 9.59142 12.4253 9.51481C12.4253 9.4382 12.2376 9.30031 12.2376 9.30031C12.2376 9.30031 12.0342 9.45353 12.0655 9.51481C12.0968 9.5761 12.2376 9.3616 12.2376 9.3616L12.1594 9.51481Z" fill="#C03F2A"/>
<path fill-rule="evenodd" clip-rule="evenodd" d="M12.1281 8.38101C12.1281 8.38101 12.0342 8.38101 12.0342 8.25844C12.0518 8.23618 12.0743 8.21815 12.1001 8.20575C12.1258 8.19335 12.1542 8.1869 12.1829 8.1869C12.2116 8.1869 12.2399 8.19335 12.2657 8.20575C12.2914 8.21815 12.3139 8.23618 12.3315 8.25844L12.222 8.38101V8.51891C12.222 8.51891 12.3941 8.28908 12.3941 8.41165C12.3941 8.53423 12.222 8.61084 12.222 8.61084H12.1281C12.1281 8.61084 11.9247 8.4423 11.956 8.41165C11.9873 8.38101 12.1281 8.51891 12.1281 8.51891V8.38101Z" fill="#C03F2A"/>
<path fill-rule="evenodd" clip-rule="evenodd" d="M8.01376 9.54546C7.99704 9.4957 7.99704 9.442 8.01376 9.39224C8.01376 9.39224 8.01376 9.26967 8.12326 9.26967C8.23277 9.26967 8.21712 9.3616 8.21712 9.39224V9.54546V9.42289C8.21712 9.59143 8.21712 9.59143 8.12326 9.42289L8.01376 9.54546Z" fill="white"/>
<path fill-rule="evenodd" clip-rule="evenodd" d="M8.01379 8.381C8.01379 8.381 8.01379 8.48825 8.01379 8.51889C8.01379 8.54954 8.01379 8.64147 8.1233 8.64147C8.2328 8.64147 8.21716 8.54954 8.21716 8.48825V8.381V8.48825C8.21716 8.31971 8.21716 8.31971 8.1233 8.48825L8.01379 8.381Z" fill="white"/>
<path fill-rule="evenodd" clip-rule="evenodd" d="M12.8164 9.51482C12.8061 9.49054 12.8008 9.4645 12.8008 9.43821C12.8008 9.41191 12.8061 9.38587 12.8164 9.3616C12.8164 9.3616 12.9103 9.26967 12.9416 9.26967C12.9736 9.273 13.0035 9.28698 13.0263 9.30929C13.049 9.33159 13.0633 9.36087 13.0667 9.39224C13.0765 9.44287 13.0765 9.49483 13.0667 9.54546V9.42289C13.0667 9.56078 13.0667 9.56078 12.9729 9.42289L12.8164 9.51482Z" fill="white"/>
<path fill-rule="evenodd" clip-rule="evenodd" d="M12.8164 8.381C12.8045 8.4158 12.8045 8.45346 12.8164 8.48825C12.8164 8.48825 12.9103 8.61083 12.9416 8.61083C12.9729 8.61083 13.0667 8.5189 13.0667 8.48825V8.35036V8.47293C13.0667 8.28907 13.0667 8.28907 12.9729 8.47293L12.8164 8.381Z" fill="white"/>
<path fill-rule="evenodd" clip-rule="evenodd" d="M9.93802 10.8325V10.5567H9.10891V10.0051H8.35802V9.79061H7.74791V8.0899H8.35802V7.92136H9.10891V7.33913H9.93802V7.07866H11.0331V7.33913H11.8622V7.92136H12.5974V8.0899H13.2232V9.79061H12.5974V10.0051H11.8622V10.5567H11.0331V10.8325H9.93802ZM9.84416 10.9244V10.7252H9.01505V10.097H8.2798V9.88254H7.65405V7.99796H8.2798V7.82943H9.01505V7.2472H9.84416V6.95609H11.1269V7.2472H11.956V7.82943H12.6913V7.99796H13.3483V9.88254H12.6913V10.097H11.956V10.7252H11.1269V10.9857L9.84416 10.9244Z" fill="#C03F2A"/>
<path fill-rule="evenodd" clip-rule="evenodd" d="M25.9727 6.72625C26.0061 6.2162 25.9324 5.70487 25.756 5.22383C25.5797 4.74279 25.3045 4.30227 24.9476 3.92949C24.5906 3.55671 24.1593 3.25958 23.6805 3.05645C23.2016 2.85333 22.6853 2.74854 22.1635 2.74854C21.6416 2.74854 21.1254 2.85333 20.6465 3.05645C20.1676 3.25958 19.7364 3.55671 19.3794 3.92949C19.0224 4.30227 18.7473 4.74279 18.5709 5.22383C18.3946 5.70487 18.3209 6.2162 18.3543 6.72625C18.3209 7.2363 18.3946 7.74764 18.5709 8.22868C18.7473 8.70972 19.0224 9.15024 19.3794 9.52302C19.7364 9.8958 20.1676 10.1929 20.6465 10.3961C21.1254 10.5992 21.6416 10.704 22.1635 10.704C22.6853 10.704 23.2016 10.5992 23.6805 10.3961C24.1593 10.1929 24.5906 9.8958 24.9476 9.52302C25.3045 9.15024 25.5797 8.70972 25.756 8.22868C25.9324 7.74764 26.0061 7.2363 25.9727 6.72625Z" fill="white"/>
<path fill-rule="evenodd" clip-rule="evenodd" d="M24.9246 6.12871C24.9184 5.39908 24.6917 4.6876 24.273 4.08409C23.8543 3.48057 23.2624 3.01208 22.5721 2.73775C21.8817 2.46343 21.1239 2.39556 20.3942 2.54273C19.6646 2.6899 18.9958 3.04549 18.4723 3.56463C17.9488 4.08377 17.594 4.74318 17.4528 5.45962C17.3117 6.17605 17.3904 6.91739 17.679 7.59006C17.9676 8.26272 18.4533 8.83655 19.0746 9.23911C19.696 9.64167 20.4252 9.8549 21.1702 9.8519C21.6666 9.8499 22.1577 9.75189 22.6154 9.56351C23.073 9.37513 23.4882 9.10008 23.837 8.75414C24.1859 8.40821 24.4615 7.9982 24.6482 7.54766C24.8348 7.09712 24.9287 6.61491 24.9246 6.12871Z" fill="#307359"/>
<path fill-rule="evenodd" clip-rule="evenodd" d="M22.6562 4.6425H22.1087L21.9679 5.16344L21.7958 4.6425H21.2483L21.6707 4.32074L21.4986 3.83044L21.9366 4.12156L22.3903 3.83044L22.2338 4.32074L22.6562 4.6425Z" fill="#FBFCFC"/>
<path fill-rule="evenodd" clip-rule="evenodd" d="M20.7165 3.69255L20.1846 3.72319L20.0438 4.21349L19.8717 3.72319L19.3398 3.69255L19.7466 3.35547L19.5589 2.88049L20.0125 3.15628L20.4349 2.88049L20.3097 3.35547L20.7165 3.69255Z" fill="#FBFCFC"/>
<path fill-rule="evenodd" clip-rule="evenodd" d="M20.7165 5.59245H20.1846L20.0438 6.08275L19.8717 5.59245H19.3398L19.7466 5.2707L19.5589 4.74976L20.0125 5.07151L20.4349 4.74976L20.3097 5.2707L20.7165 5.59245Z" fill="#FBFCFC"/>
<path fill-rule="evenodd" clip-rule="evenodd" d="M20.7165 7.50766H20.1846L20.0438 7.99796L19.8717 7.50766H19.3398L19.7466 7.1859L19.5589 6.66496L20.0125 6.98672L20.4349 6.66496L20.3097 7.1859L20.7165 7.50766Z" fill="#FBFCFC"/>
<path fill-rule="evenodd" clip-rule="evenodd" d="M18.7923 6.52708H18.2604L18.1196 7.04802L17.9319 6.52708H17.4L17.8224 6.20532L17.6503 5.71503L18.0883 6.00614L18.5264 5.71503L18.3856 6.20532L18.7923 6.52708Z" fill="#FBFCFC"/>
<path fill-rule="evenodd" clip-rule="evenodd" d="M11.127 26.8131H11.2365V26.5526H11.4711V26.8131H11.5963V26.2002H11.4711V26.4607H11.2365V26.2002H11.127V26.8131Z" fill="#C03F2A"/>
</svg>
